<svg width="197" height="148" viewBox="0 0 197 148" fill="none" xmlns="http://www.w3.org/2000/svg">
<path d="M0.5 38.5L0.78263 37.5408L0.165295 39.4423L0.5 38.5ZM194.994 0.886885C194.931 0.338144 194.436 -0.0560538 193.887 0.00641817L184.945 1.02446C184.396 1.08693 184.002 1.58241 184.064 2.13115C184.127 2.6799 184.622 3.07409 185.171 3.01162L193.12 2.1067L194.024 10.0554C194.087 10.6041 194.582 10.9983 195.131 10.9358C195.68 10.8733 196.074 10.3779 196.012 9.82912L194.994 0.886885ZM164.672 140.741C165.081 140.369 165.112 139.737 164.741 139.328L158.693 132.663C158.322 132.254 157.689 132.223 157.28 132.594C156.871 132.966 156.84 133.598 157.212 134.007L162.587 139.931L156.663 145.307C156.254 145.678 156.223 146.311 156.594 146.72C156.966 147.129 157.598 147.16 158.007 146.788L164.672 140.741ZM0.165295 39.4423C15.5018 44.8897 49.6082 53.6479 87.1324 51.9615C124.667 50.2746 165.741 38.1267 194.783 1.62258L193.217 0.377416C164.659 36.2733 124.233 48.2921 87.0426 49.9635C49.8418 51.6354 15.9982 42.9436 0.834705 37.5577L0.165295 39.4423ZM0.21737 39.4592C13.997 43.5193 24.6384 51.49 34.4807 61.3246C39.405 66.245 44.1182 71.6204 48.926 77.2006C53.7272 82.7731 58.6256 88.5532 63.8911 94.2418C85.0106 117.058 112.115 138.482 163.952 140.999L164.048 139.001C112.885 136.518 86.2394 115.442 65.3589 92.8832C60.1244 87.2281 55.2571 81.4847 50.4412 75.8951C45.6318 70.3132 40.8763 64.8878 35.8943 59.9098C25.9241 49.9475 15.003 41.7307 0.78263 37.5408L0.21737 39.4592Z" fill="black"/>
</svg>
