<svg width="189" height="141" viewBox="0 0 189 141" fill="none" xmlns="http://www.w3.org/2000/svg">
<path d="M188.991 104.63C189.066 104.083 188.684 103.578 188.137 103.502L179.222 102.27C178.675 102.194 178.17 102.577 178.094 103.124C178.019 103.671 178.401 104.176 178.948 104.251L186.873 105.347L185.777 113.271C185.702 113.818 186.084 114.323 186.631 114.399C187.178 114.474 187.683 114.092 187.758 113.545L188.991 104.63ZM0.760684 1.97094C39.6942 11.5672 61.7248 29.5529 75.1772 49.3807C88.6626 69.2573 93.5797 91.0442 98.1605 108.444C100.44 117.101 102.655 124.746 105.852 130.424C109.077 136.15 113.371 139.993 119.808 140.829C126.144 141.652 134.367 139.529 145.418 133.884C156.495 128.227 170.551 118.959 188.604 105.29L187.396 103.696C169.378 117.338 155.431 126.525 144.509 132.103C133.56 137.695 125.788 139.589 120.065 138.846C114.444 138.116 110.618 134.811 107.595 129.442C104.544 124.024 102.384 116.629 100.095 107.934C95.539 90.6309 90.5484 68.4744 76.8322 48.2578C63.0829 27.9924 40.618 9.73503 1.23932 0.0290582L0.760684 1.97094Z" fill="#34384E"/>
</svg>
