<svg width="80" height="80" viewBox="0 0 80 80" fill="none" xmlns="http://www.w3.org/2000/svg">
<g clip-path="url(#clip0_50_657)">
<path d="M57.5944 65.8732C55.3846 62.0094 52.1784 58.7715 48.2512 56.5266C46.2834 55.4017 43.7999 55.7589 42.1959 57.3628C42.1419 57.4169 41.5662 58.348 40.5569 59.2555C30.7731 68.0994 11.4891 47.6621 23.9451 39.132C25.5864 37.4907 25.8999 35.006 24.7913 33.0667C22.5464 29.1395 19.3085 25.9333 15.4447 23.7235C13.4752 22.5969 11.0168 22.9975 9.39113 24.578C-15.0124 48.2557 32.9829 96.3454 56.7399 71.9268C58.3204 70.3011 58.721 67.8427 57.5944 65.8732Z" fill="#D7D8DA"/>
<path d="M44.2343 64.3529C41.8815 65.1234 39.283 64.7762 36.8192 63.6918C35.6508 63.1778 35.7794 61.4832 37.0171 61.1711C38.2761 60.8536 39.4748 60.2338 40.5571 59.2554C40.6125 59.3108 42.3228 60.2481 44.6234 62.0256C45.4699 62.6797 45.2509 64.0201 44.2343 64.3529ZM15.9778 67.2357C4.04057 55.9188 -2.47099 38.5654 7.67872 26.4224C9.42285 27.4559 11.0883 28.6167 12.6616 29.8953C13.195 30.3289 13.3054 31.0998 12.923 31.671C6.08663 41.8809 9.73079 55.1092 17.9458 65.4405C18.9781 66.7388 17.1815 68.3768 15.9778 67.2357Z" fill="#E8F3FF"/>
<path d="M57.5944 65.8735C58.721 67.8429 58.3204 70.3014 56.7399 71.927C56.1407 72.5429 55.5265 73.1137 54.8973 73.6395C48.9912 63.683 40.812 59.5118 40.5569 59.2558C41.1361 58.735 41.6819 58.1091 42.1859 57.3731C43.8272 55.7318 46.3119 55.4183 48.2512 56.5269C52.1784 58.7717 55.3846 62.0097 57.5944 65.8735Z" fill="#F5F6F8"/>
<path d="M48.8891 60.6842C48.7936 60.7783 48.2343 61.7083 47.1706 62.6499C46.6823 63.0824 45.9493 63.0876 45.444 62.6748C42.59 60.3423 40.6953 59.3938 40.5569 59.2556C41.1361 58.7349 41.6819 58.109 42.1859 57.373C43.7246 55.8343 46.1589 55.3144 48.4051 56.6152C49.8823 57.4706 50.1048 59.486 48.8891 60.6842Z" fill="#D7D8DA"/>
<path d="M24.7913 33.0667C25.8984 35.0035 25.5887 37.4883 23.9451 39.132C23.209 39.636 22.5832 40.1801 22.0608 40.7593C18.6309 35.0162 13.759 30.0274 7.67871 26.4223C8.20446 25.7931 8.7736 25.1772 9.39114 24.578C11.0168 22.9975 13.4753 22.5969 15.4447 23.7235C19.3085 25.9333 22.5464 29.1395 24.7913 33.0667Z" fill="#F5F6F8"/>
<path d="M15.9473 24.0186C17.2952 24.8312 17.4137 26.7094 16.2387 27.7567C15.9254 28.0359 15.1515 28.818 14.4456 29.6524C14.2192 29.9205 13.8966 30.0891 13.5471 30.1217C13.1977 30.1543 12.8494 30.0484 12.5773 29.8268C11.0289 28.5751 9.3917 27.4373 7.67871 26.4223C8.20446 25.7931 8.7736 25.1772 9.39114 24.578C11.0168 22.9975 13.4753 22.5969 15.4447 23.7235C15.6135 23.82 15.7809 23.9183 15.9473 24.0186Z" fill="#D7D8DA"/>
<path d="M77.3391 24.6532C77.4053 39.7539 62.5069 51.812 47.1563 47.1868C44.9348 49.2063 42.1726 50.2178 39.3619 50.2378C37.9383 50.2478 37.2022 48.5604 38.1803 47.5273C39.1641 46.4911 39.9699 45.2995 40.5653 44.0006C34.3599 39.6878 30.3408 32.4509 30.5011 24.2844C30.7481 11.7082 41.4432 1.2801 54.0227 1.33518C66.8759 1.39193 77.284 11.8 77.3391 24.6532Z" fill="#F5F6F8"/>
<path d="M41.5522 50.0173C40.8308 50.1596 40.0975 50.2335 39.3621 50.238C37.9384 50.248 37.2024 48.5606 38.1804 47.5275C38.5319 47.1573 38.8613 46.7668 39.1668 46.358C39.8885 45.3919 41.2813 45.2639 42.2048 46.0393C42.3043 46.1228 42.4043 46.2054 42.5051 46.2874C43.902 47.4215 43.3099 49.6702 41.5522 50.0173ZM60.1829 2.18239C61.7647 2.62034 61.3287 4.96783 59.6963 4.79893C45.1251 3.29029 32.441 15.8272 33.9598 30.5284C34.128 32.1575 31.7829 32.6042 31.3454 31.0258C26.491 13.5108 42.9078 -2.60156 60.1829 2.18239Z" fill="#D7D8DA"/>
<path d="M53.7807 11.6831C55.5766 11.6831 56.9853 13.2203 56.8317 15.0095L55.7752 27.2118C55.6851 28.2466 54.8189 29.041 53.7807 29.041C52.7426 29.041 51.8764 28.2466 51.7862 27.2118L50.7297 15.0095C50.5762 13.2203 51.9848 11.6831 53.7807 11.6831Z" fill="#E8F3FF"/>
<path d="M57.3551 24.4373L58.1611 15.1239C58.213 14.5169 58.1386 13.9057 57.9424 13.3289C57.7461 12.7521 57.4325 12.2223 57.0211 11.7728C55.2798 9.8743 52.2811 9.8748 50.5403 11.7728C50.1289 12.2223 49.8153 12.7521 49.6191 13.3289C49.4228 13.9057 49.3484 14.5169 49.4003 15.1239L50.4562 27.327C50.5201 28.0642 51.1703 28.6062 51.9015 28.5421C52.0762 28.527 52.2462 28.4776 52.4019 28.3968C52.5575 28.316 52.6956 28.2053 52.8085 28.0711C52.9213 27.9369 53.0066 27.7817 53.0595 27.6145C53.1123 27.4474 53.1317 27.2714 53.1166 27.0967L52.0606 14.8936C51.9738 13.8895 52.7618 13.0183 53.7807 13.0183C54.7906 13.0183 55.5884 13.8805 55.5008 14.8936L54.6948 24.2069C54.6797 24.3816 54.6991 24.5576 54.752 24.7248C54.8049 24.892 54.8901 25.0471 55.003 25.1813C55.1158 25.3155 55.254 25.4262 55.4096 25.507C55.5652 25.5878 55.7352 25.6372 55.9099 25.6523C56.6438 25.7174 57.2917 25.1718 57.3551 24.4373Z" fill="#D2003F"/>
<path d="M53.6138 38.5548C55.0887 38.5548 56.2843 37.3592 56.2843 35.8843C56.2843 34.4095 55.0887 33.2139 53.6138 33.2139C52.139 33.2139 50.9434 34.4095 50.9434 35.8843C50.9434 37.3592 52.139 38.5548 53.6138 38.5548Z" fill="#D2003F"/>
<path d="M53.9221 0C40.6509 0 29.4277 10.97 29.1663 24.2587C29.0108 32.1716 32.6134 39.6173 38.8556 44.4056C38.3962 45.2024 37.8445 45.9423 37.2117 46.6099C35.4304 48.4904 36.7613 51.5731 39.3486 51.5731C42.4482 51.5731 45.604 50.4026 48.0543 48.1751C48.3163 47.9369 48.473 47.6044 48.4899 47.2506C48.5068 46.8969 48.3824 46.551 48.1442 46.2889C47.906 46.0269 47.5735 45.8702 47.2198 45.8533C46.866 45.8364 46.5201 45.9608 46.2581 46.199C44.3594 47.9249 41.9069 48.8851 39.3521 48.9024C39.3067 48.9039 39.1662 48.9036 39.0951 48.7399C39.025 48.5787 39.1194 48.4789 39.1506 48.4461C40.2343 47.3033 41.1223 45.9897 41.7789 44.5581C41.9095 44.2734 41.9359 43.9518 41.8533 43.6496C41.7708 43.3473 41.5846 43.0838 41.3274 42.905C35.2388 38.6725 31.6907 31.7214 31.8365 24.3111C32.0678 12.5414 42.2248 2.60703 54.0169 2.67062C66.0885 2.72336 75.952 12.5873 76.004 24.6589C76.0506 35.4606 67.9935 44.8856 57.2626 46.582C56.9129 46.6373 56.5994 46.8293 56.3911 47.1157C56.1829 47.4021 56.0969 47.7595 56.1522 48.1093C56.2075 48.4591 56.3995 48.7726 56.6859 48.9808C56.9724 49.1891 57.3298 49.275 57.6796 49.2197C69.4938 47.3521 78.7269 36.8243 78.6745 24.6474C78.6161 11.1331 67.6676 0 53.9221 0Z" fill="#D2003F"/>
<path d="M49.1625 55.5109C48.8572 55.3363 48.4954 55.2892 48.1556 55.3798C47.8158 55.4704 47.5255 55.6914 47.3477 55.9948C47.1699 56.2982 47.1189 56.6595 47.2059 57.0002C47.2929 57.3409 47.5108 57.6336 47.8122 57.8146C51.3896 59.9114 54.3715 62.927 56.4356 66.5356C57.2389 67.94 56.9699 69.7744 55.7819 70.9966C34.1526 93.2465 -9.36092 51.2955 7.98799 28.1783C11.3421 30.2996 14.3606 32.9099 16.9437 35.9228C17.1742 36.1916 17.5021 36.3579 17.8552 36.385C18.2083 36.4121 18.5577 36.2978 18.8265 36.0673C19.0954 35.8368 19.2616 35.5089 19.2887 35.1558C19.3158 34.8027 19.2016 34.4533 18.971 34.1845C16.2984 31.0662 13.188 28.3516 9.73697 26.1252C9.92838 25.9255 10.1232 25.7291 10.3215 25.5361C11.5437 24.3479 13.3781 24.0792 14.7824 24.8823C18.4692 26.991 21.5297 30.05 23.6327 33.729C24.4363 35.1348 24.2065 36.9209 23.0797 38.1074C13.4946 44.8112 20.6912 58.2781 30.4436 61.9169C34.2614 63.3413 37.8516 62.9706 40.6678 60.89C44.0737 63.0315 47.1357 65.6763 49.75 68.7344C49.981 69.0004 50.3079 69.1642 50.6592 69.1902C51.0105 69.2163 51.3579 69.1024 51.6257 68.8735C51.8934 68.6445 52.0598 68.319 52.0886 67.9679C52.1175 67.6168 52.0064 67.2685 51.7795 66.999C48.7756 63.4844 45.2188 60.4831 41.2491 58.113C40.7564 57.8158 40.1063 57.8667 39.6659 58.2646C33.4748 63.8567 22.2594 55.4618 21.2853 47.482C20.6788 42.5133 24.3942 40.5715 24.8999 40.0658C26.9347 38.0311 27.3669 34.8805 25.9513 32.404C23.612 28.3118 20.2083 24.9093 16.1083 22.5645C13.6762 21.1734 10.5311 21.6082 8.46016 23.6215C7.90828 24.1588 7.38073 24.7205 6.87908 25.3049C6.72249 25.4137 6.59111 25.5548 6.49387 25.7188C6.12134 26.3485 3.17867 29.488 1.91021 35.0616C-3.98798 60.9733 36.1859 94.9854 57.6966 72.8581C59.7099 70.787 60.1445 67.642 58.7536 65.2099C56.4583 61.1971 53.1416 57.8432 49.1625 55.5109Z" fill="#D2003F"/>
</g>
<defs>
<clipPath id="clip0_50_657">
<rect width="80" height="80" fill="white"/>
</clipPath>
</defs>
</svg>
