<svg width="81" height="66" viewBox="0 0 81 66" fill="none" xmlns="http://www.w3.org/2000/svg">
<path d="M79.0667 35.9934C79.0667 43.9277 74.2362 50.9626 66.7897 55.3346C66.2397 55.6576 65.9903 56.3194 66.1958 56.9231C66.7847 58.6527 67.8553 60.1304 69.2215 61.2557C70.0753 61.9591 69.7793 63.3212 68.7067 63.5919C63.8578 64.8157 59.3607 63.2559 56.4845 59.9182C56.3353 59.7444 56.1437 59.6122 55.9283 59.5343C55.7129 59.4564 55.481 59.4356 55.2552 59.4737C36.8433 62.6119 18.8033 51.5427 18.8033 35.9934C18.8033 22.7334 32.2933 11.9834 48.935 11.9834C65.5767 11.9834 79.0667 22.7334 79.0667 35.9934Z" fill="white"/>
<path d="M63.9 16.9153V39.4937C63.9 44.6487 59.7217 48.827 54.5667 48.827H38.495C37.5367 48.827 36.6517 49.3403 36.1783 50.1753C35.3284 51.6786 34.2531 53.0427 32.99 54.2203C32.095 55.0553 30.7383 55.1603 29.7183 54.487C23.2653 50.1838 18.8033 43.685 18.8033 35.9937C18.8033 18.5252 41.192 7.37834 60.49 13.8137C60.5122 13.8137 61.7579 14.2457 62.255 14.4503C63.255 14.8553 63.9 15.8353 63.9 16.9153Z" fill="#D7D8DA"/>
<path d="M59.9 7.32682V39.4935C59.9 42.439 57.5122 44.8268 54.5667 44.8268H35.0398C34.7578 44.827 34.4831 44.9166 34.2553 45.0828C34.0275 45.249 33.8583 45.4832 33.772 45.7517C31.9532 51.403 26.8788 54.755 21.4522 54.7758C20.383 54.7798 19.7257 53.6025 20.3173 52.712C21.5612 50.8402 22.4675 48.7185 22.938 46.429C23.1078 45.6022 22.4747 44.827 21.6305 44.827H7.06667C4.12117 44.827 1.73334 42.4392 1.73334 39.4937V7.32699C1.73334 4.38149 4.12117 1.99365 7.06667 1.99365H54.5667C57.5122 1.99349 59.9 4.38132 59.9 7.32682Z" fill="white"/>
<path d="M54.8187 1.9995C59.1077 2.199 58.8802 8.66033 54.5865 8.66033H13.7333C10.7878 8.66033 8.4 11.0482 8.4 13.9937V39.5137C8.4 43.8563 1.73334 44.0815 1.73334 39.4937V7.327C1.73334 4.3815 4.12117 1.99366 7.06667 1.99366C7.06667 1.9935 54.7352 1.9955 54.8187 1.9995Z" fill="#F5F6F8"/>
<path d="M47.2334 11.1602H19.9C19.5464 11.1602 19.2073 11.3006 18.9572 11.5507C18.7072 11.8007 18.5667 12.1399 18.5667 12.4935C18.5667 12.8471 18.7072 13.1862 18.9572 13.4363C19.2073 13.6863 19.5464 13.8268 19.9 13.8268H47.2334C47.587 13.8268 47.9261 13.6863 48.1762 13.4363C48.4262 13.1862 48.5667 12.8471 48.5667 12.4935C48.5667 12.1399 48.4262 11.8007 48.1762 11.5507C47.9261 11.3006 47.587 11.1602 47.2334 11.1602ZM48.5667 23.1602C48.5667 22.8065 48.4262 22.4674 48.1762 22.2173C47.9261 21.9673 47.587 21.8268 47.2334 21.8268H14.4C14.0464 21.8268 13.7073 21.9673 13.4572 22.2173C13.2072 22.4674 13.0667 22.8065 13.0667 23.1602C13.0667 23.5138 13.2072 23.8529 13.4572 24.103C13.7073 24.353 14.0464 24.4935 14.4 24.4935H47.2334C47.587 24.4935 47.9261 24.353 48.1762 24.103C48.4262 23.8529 48.5667 23.5138 48.5667 23.1602ZM40.4 32.3268C40.0464 32.3268 39.7073 32.4673 39.4572 32.7173C39.2072 32.9674 39.0667 33.3065 39.0667 33.6602C39.0667 34.0138 39.2072 34.3529 39.4572 34.603C39.7073 34.853 40.0464 34.9935 40.4 34.9935H40.7334C41.087 34.9935 41.4261 34.853 41.6762 34.603C41.9262 34.3529 42.0667 34.0138 42.0667 33.6602C42.0667 33.3065 41.9262 32.9674 41.6762 32.7173C41.4261 32.4673 41.087 32.3268 40.7334 32.3268H40.4ZM14.4 32.3268C14.0464 32.3268 13.7073 32.4673 13.4572 32.7173C13.2072 32.9674 13.0667 33.3065 13.0667 33.6602C13.0667 34.0138 13.2072 34.3529 13.4572 34.603C13.7073 34.853 14.0464 34.9935 14.4 34.9935H34.5667C34.9203 34.9935 35.2595 34.853 35.5095 34.603C35.7596 34.3529 35.9 34.0138 35.9 33.6602C35.9 33.3065 35.7596 32.9674 35.5095 32.7173C35.2595 32.4673 34.9203 32.3268 34.5667 32.3268H14.4Z" fill="#D2003F"/>
<path d="M80.4 35.9935C80.4 24.587 71.31 15.7837 60.308 12.353C59.6442 12.1398 58.9347 12.475 58.6739 13.098C58.5169 13.4645 58.5665 11.865 58.5665 39.4937C58.5665 41.6992 56.772 43.4937 54.5665 43.4937H34.0344C33.7366 43.4937 33.4474 43.5933 33.2128 43.7768C32.9783 43.9603 32.8119 44.217 32.7402 44.506C31.4047 49.8895 26.7609 53.4473 21.4307 53.4473C23.1209 50.9102 24.1791 48.0052 24.5169 44.9753C24.6054 44.1862 23.9872 43.4935 23.1919 43.4935H7.06669C4.86119 43.4935 3.06669 41.699 3.06669 39.4935V7.32682C3.06669 5.12132 4.86119 3.32682 7.06669 3.32682H54.5667C55.1567 3.32618 55.7395 3.45634 56.2732 3.70793C56.8068 3.95952 57.2781 4.32628 57.653 4.78182C57.88 5.0488 58.2029 5.21573 58.5519 5.24649C58.901 5.27726 59.2481 5.16941 59.5183 4.94625C59.7884 4.72309 59.9599 4.40256 59.9956 4.05398C60.0313 3.70539 59.9284 3.35677 59.709 3.08349C58.4367 1.54349 56.5625 0.660156 54.5667 0.660156H7.06669C3.39069 0.660156 0.400024 3.65082 0.400024 7.32682V39.4935C0.400024 43.1695 3.39069 46.1602 7.06669 46.1602H21.6324C21.0652 48.9257 19.7962 51.4985 17.9162 53.6718C17.2452 54.4478 17.6674 55.6638 18.6775 55.8543C25.906 57.2182 32.7905 53.138 35.0402 46.1602H54.5667C58.2427 46.1602 61.2334 43.1695 61.2334 39.4935V15.4858C71.3169 19.228 77.7334 27.1235 77.7334 35.9937C77.7334 43.4398 73.0712 50.4208 65.262 54.6677C65.0102 54.8047 64.8092 55.0192 64.6889 55.2794C64.5686 55.5396 64.5353 55.8317 64.594 56.1123C65.0802 58.4338 66.3265 60.5985 68.4084 62.3005C63.7974 63.4818 59.588 61.8312 57.0747 58.529C56.9243 58.3315 56.7219 58.1799 56.49 58.0913C56.2582 58.0026 56.0063 57.9803 55.7625 58.027C48.877 59.3478 41.6969 58.5995 35.6482 56.1133C35.3211 55.9789 34.9541 55.9799 34.6278 56.1162C34.3015 56.2524 34.0426 56.5126 33.9082 56.8397C33.8416 57.0016 33.8076 57.1751 33.8081 57.3502C33.8086 57.5252 33.8435 57.6985 33.911 57.8601C33.9784 58.0217 34.077 58.1684 34.2012 58.2919C34.3253 58.4153 34.4726 58.5131 34.6345 58.5797C41.3275 61.3307 48.7217 61.9363 55.4747 60.7887C57.888 63.5908 61.4285 65.3402 65.4097 65.3402C68.9034 65.3402 71.5599 64.0202 71.9835 63.7972C72.9515 63.2873 72.926 61.8863 71.9367 61.414C69.9197 60.4513 68.202 58.7042 67.4555 56.4908C75.582 51.7253 80.4 44.1302 80.4 35.9935Z" fill="#D2003F"/>
</svg>
