<svg width="81" height="80" viewBox="0 0 81 80" fill="none" xmlns="http://www.w3.org/2000/svg">
<g clip-path="url(#clip0_126_333)">
<path d="M75.4668 43.7503H64.4103C64.4931 43.2568 64.4668 45.4695 64.4668 10.417C64.4668 8.20866 62.6751 6.41699 60.4668 6.41699H27.8001C25.5918 6.41699 23.8001 8.20866 23.8001 10.417V26.0837H6.13342C3.92509 26.0837 2.13342 27.8753 2.13342 30.0837V69.5837C2.13342 71.792 3.92509 73.5837 6.13342 73.5837H45.6334C47.8418 73.5837 49.6334 71.792 49.6334 69.5837C49.6334 71.792 51.4251 73.5837 53.6334 73.5837H75.4668C77.6751 73.5837 79.4668 71.792 79.4668 69.5837V47.7503C79.4668 45.542 77.6751 43.7503 75.4668 43.7503Z" fill="#D7D8DA"/>
<path d="M38.8001 6.4165V10.0832C38.8001 10.8198 38.2034 11.4165 37.4668 11.4165H34.4668C32.2584 11.4165 30.4668 13.2082 30.4668 15.4165V26.0832H23.8001V10.4165C23.8001 8.20817 25.5918 6.4165 27.8001 6.4165H38.8001ZM45.7208 30.4165H35.3001C34.9465 30.4165 34.6073 30.276 34.3573 30.026C34.1072 29.7759 33.9668 29.4368 33.9668 29.0832V26.0832H45.6334C48.7291 26.0832 48.5303 30.4165 45.7208 30.4165ZM17.8801 26.0832V29.0832C17.8801 29.4368 17.7396 29.7759 17.4896 30.026C17.2395 30.276 16.9004 30.4165 16.5468 30.4165H12.1334C9.92426 30.4165 8.13342 32.2073 8.13342 34.4165V72.2498C8.13342 72.6035 7.99295 72.9426 7.7429 73.1927C7.49285 73.4427 7.15371 73.5832 6.80009 73.5832H6.13342C3.92426 73.5832 2.13342 71.7923 2.13342 69.5832V30.0832C2.13342 27.874 3.92426 26.0832 6.13342 26.0832H17.8801ZM77.2278 47.0832H71.1334C70.7798 47.0832 70.4407 46.9427 70.1906 46.6927C69.9406 46.4426 69.8001 46.1035 69.8001 45.7498V43.7498H75.4668C76.4445 43.7487 77.3885 44.107 78.1191 44.7567C79.0339 45.5682 78.4506 47.0832 77.2278 47.0832ZM59.1334 43.7498V45.8157C59.1334 46.45 58.6183 47.0333 57.9921 47.1345C56.0921 47.4413 54.6318 49.0887 54.6318 51.0845V69.6007C54.6328 72.8472 49.6334 73.0357 49.6334 69.5832V47.7498C49.6334 45.5407 51.4243 43.7498 53.6334 43.7498H59.1334ZM60.4833 11.4165H50.8001C50.4465 11.4165 50.1073 11.276 49.8573 11.026C49.6072 10.7759 49.4668 10.4368 49.4668 10.0832V6.4165H60.4668C63.9143 6.4165 63.7358 11.4165 60.4833 11.4165Z" fill="white"/>
<path d="M64.4667 42.417C64.4667 43.0988 64.4801 43.3557 64.4102 43.7503H53.6334C51.674 43.7503 50.0095 45.1735 49.69 47.0837C49.6019 47.0837 49.6334 48.4017 49.6334 30.0837C49.6334 27.8753 47.8417 26.0837 45.6334 26.0837H23.8V24.7503C23.8 24.0137 24.3967 23.417 25.1334 23.417H45.6334C49.3151 23.417 52.3 26.402 52.3 30.0837V41.217C53.2037 41.035 52.8841 41.0837 63.1334 41.0837C63.87 41.0837 64.4667 41.6803 64.4667 42.417Z" fill="white"/>
<path d="M49.4667 6.41699V15.7687C49.4667 17.752 47.38 19.0403 45.6067 18.1537L44.1334 17.417L42.66 18.1537C40.8867 19.0403 38.8 17.752 38.8 15.7687V6.41699H49.4667Z" fill="white"/>
<path d="M49.4667 6.41699V10.0837C49.4667 10.4373 49.3262 10.7764 49.0762 11.0265C48.8261 11.2765 48.487 11.417 48.1334 11.417H40.1334C39.7798 11.417 39.4406 11.2765 39.1906 11.0265C38.9405 10.7764 38.8 10.4373 38.8 10.0837V6.41699H49.4667Z" fill="#F5F6F8"/>
<path d="M69.8001 43.75V51.435C69.8001 53.4183 67.7134 54.7067 65.9401 53.82L64.4668 53.0833L62.9934 53.82C61.2201 54.7067 59.1334 53.4183 59.1334 51.435V43.75H69.8001Z" fill="white"/>
<path d="M69.8001 43.75V45.75C69.8001 46.1036 69.6596 46.4428 69.4096 46.6928C69.1595 46.9429 68.8204 47.0833 68.4668 47.0833H60.4668C60.1131 47.0833 59.774 46.9429 59.5239 46.6928C59.2739 46.4428 59.1334 46.1036 59.1334 45.75V43.75H69.8001Z" fill="#F5F6F8"/>
<path d="M33.9667 26.0835V38.5968C33.9667 40.2185 32.14 41.1652 30.815 40.2318L29.9883 39.6502L27.4383 41.4085C26.9927 41.7154 26.4644 41.8798 25.9233 41.8798C25.3823 41.8798 24.8539 41.7154 24.4083 41.4085L21.8583 39.6502L21.0317 40.2318C19.7067 41.1652 17.88 40.2185 17.88 38.5968V26.0835H33.9667Z" fill="white"/>
<path d="M33.9667 26.0835V29.0835C33.9667 29.4371 33.8262 29.7763 33.5761 30.0263C33.3261 30.2764 32.987 30.4168 32.6333 30.4168H19.2133C18.8597 30.4168 18.5206 30.2764 18.2705 30.0263C18.0205 29.7763 17.88 29.4371 17.88 29.0835V26.0835H33.9667Z" fill="#F5F6F8"/>
<path d="M75.4667 42.4168H65.8001V10.4168C65.8001 7.476 63.4076 5.0835 60.4667 5.0835H27.8C24.8592 5.0835 22.4667 7.476 22.4667 10.4168V19.8038C22.4667 20.1575 22.6072 20.4966 22.8572 20.7466C23.1073 20.9967 23.4464 21.1372 23.8 21.1372C24.1537 21.1372 24.4928 20.9967 24.7429 20.7466C24.9929 20.4966 25.1334 20.1575 25.1334 19.8038V10.4168C25.1334 8.9465 26.3297 7.75016 27.8 7.75016H37.4667V15.7687C37.4667 18.0533 39.3357 19.7722 41.4642 19.7722C42.5579 19.7722 43.1851 19.3813 44.1334 18.9075L45.0112 19.3463C47.6739 20.6778 50.8001 18.739 50.8001 15.7687V13.2448C50.8001 12.8912 50.6596 12.5521 50.4095 12.302C50.1595 12.052 49.8203 11.9115 49.4667 11.9115C49.1131 11.9115 48.774 12.052 48.5239 12.302C48.2739 12.5521 48.1334 12.8912 48.1334 13.2448V15.7688C48.1334 16.7567 47.0942 17.4058 46.2037 16.9613L44.7295 16.2243C44.5445 16.1317 44.3404 16.0834 44.1334 16.0834C43.9264 16.0834 43.7223 16.1317 43.5372 16.2243L42.0629 16.9613C41.178 17.4038 40.1334 16.7617 40.1334 15.7688V7.75016H60.4667C61.9371 7.75016 63.1334 8.9465 63.1334 10.4168V42.4168H53.6334C50.6926 42.4168 48.3001 44.8093 48.3001 47.7502V69.5835C48.3001 71.0538 47.1037 72.2502 45.6334 72.2502H6.13338C4.66305 72.2502 3.46672 71.0538 3.46672 69.5835V30.0835C3.46672 28.6132 4.66305 27.4168 6.13338 27.4168H32.6334V38.5973C32.6334 39.1383 32.0252 39.454 31.5827 39.1423L30.756 38.5597C30.5331 38.4026 30.2673 38.3177 29.9946 38.3163C29.7219 38.315 29.4553 38.3972 29.2307 38.552L26.6806 40.3113C26.4576 40.464 26.1937 40.5458 25.9235 40.5458C25.6532 40.5458 25.3893 40.464 25.1664 40.3113L22.6162 38.552C22.3917 38.3971 22.1251 38.3147 21.8523 38.3161C21.5796 38.3175 21.3138 38.4025 21.0909 38.5597L20.2644 39.1423C19.822 39.4538 19.2137 39.1387 19.2137 38.5973V32.6212C19.2137 32.2675 19.0732 31.9284 18.8232 31.6784C18.5731 31.4283 18.234 31.2878 17.8804 31.2878C17.5268 31.2878 17.1876 31.4283 16.9376 31.6784C16.6875 31.9284 16.547 32.2675 16.547 32.6212V38.5973C16.547 41.2122 19.4982 42.9448 21.8674 41.2748L23.652 42.5062C25.0102 43.4433 26.8361 43.4437 28.1949 42.5062L29.9795 41.2748C32.3355 42.9335 35.3 41.2298 35.3 38.5973V27.4168H45.6334C47.1037 27.4168 48.3001 28.6132 48.3001 30.0835V37.6372C48.3001 37.9908 48.4405 38.3299 48.6906 38.58C48.9406 38.83 49.2798 38.9705 49.6334 38.9705C49.987 38.9705 50.3261 38.83 50.5762 38.58C50.8262 38.3299 50.9667 37.9908 50.9667 37.6372V30.0835C50.9667 27.1427 48.5742 24.7502 45.6334 24.7502H6.13338C3.19255 24.7502 0.800049 27.1427 0.800049 30.0835V69.5835C0.800049 72.5243 3.19255 74.9168 6.13338 74.9168H45.6334C48.5742 74.9168 50.9667 72.5243 50.9667 69.5835V47.7502C50.9667 46.2798 52.1631 45.0835 53.6334 45.0835H68.4667V51.4353C68.4667 52.4252 67.4261 53.0715 66.5371 52.6278L65.0629 51.8908C64.8778 51.7982 64.6737 51.75 64.4667 51.75C64.2597 51.75 64.0556 51.7982 63.8706 51.8908L62.3962 52.6278C61.5097 53.0713 60.4667 52.4265 60.4667 51.4353V48.9278C60.4667 48.5742 60.3262 48.2351 60.0762 47.985C59.8261 47.735 59.487 47.5945 59.1334 47.5945C58.7798 47.5945 58.4406 47.735 58.1906 47.985C57.9405 48.2351 57.8001 48.5742 57.8001 48.9278V51.4353C57.8001 53.72 59.6694 55.4388 61.7974 55.4388C62.8924 55.4388 63.5207 55.0468 64.4667 54.5742L65.3446 55.013C68.0072 56.3445 71.1334 54.4057 71.1334 51.4353V45.0835H75.4667C76.9371 45.0835 78.1334 46.2798 78.1334 47.7502V69.5835C78.1334 71.0538 76.9371 72.2502 75.4667 72.2502H57.9131C57.5594 72.2502 57.2203 72.3906 56.9702 72.6407C56.7202 72.8907 56.5797 73.2299 56.5797 73.5835C56.5797 73.9371 56.7202 74.2763 56.9702 74.5263C57.2203 74.7764 57.5594 74.9168 57.9131 74.9168H75.4667C78.4076 74.9168 80.8001 72.5243 80.8001 69.5835V47.7502C80.8001 44.8093 78.4076 42.4168 75.4667 42.4168Z" fill="#D2003F"/>
<path d="M9.63342 58.7503V67.0837C9.63342 67.4373 9.7739 67.7764 10.0239 68.0265C10.274 68.2765 10.6131 68.417 10.9668 68.417C11.3204 68.417 11.6595 68.2765 11.9096 68.0265C12.1596 67.7764 12.3001 67.4373 12.3001 67.0837V58.7503C12.3001 58.3967 12.1596 58.0576 11.9096 57.8075C11.6595 57.5575 11.3204 57.417 10.9668 57.417C10.6131 57.417 10.274 57.5575 10.0239 57.8075C9.7739 58.0576 9.63342 58.3967 9.63342 58.7503ZM16.9668 61.917V67.0837C16.9668 67.4373 17.1072 67.7764 17.3573 68.0265C17.6073 68.2765 17.9465 68.417 18.3001 68.417C18.6537 68.417 18.9929 68.2765 19.2429 68.0265C19.4929 67.7764 19.6334 67.4373 19.6334 67.0837V61.917C19.6334 61.5634 19.4929 61.2242 19.2429 60.9742C18.9929 60.7241 18.6537 60.5837 18.3001 60.5837C17.9465 60.5837 17.6073 60.7241 17.3573 60.9742C17.1072 61.2242 16.9668 61.5634 16.9668 61.917ZM60.1334 67.417V64.7503C60.1334 64.3967 59.9929 64.0576 59.7429 63.8075C59.4929 63.5575 59.1537 63.417 58.8001 63.417H56.1334C55.7798 63.417 55.4407 63.5575 55.1906 63.8075C54.9406 64.0576 54.8001 64.3967 54.8001 64.7503V67.417C54.8001 67.7706 54.9406 68.1098 55.1906 68.3598C55.4407 68.6099 55.7798 68.7503 56.1334 68.7503H58.8001C59.1537 68.7503 59.4929 68.6099 59.7429 68.3598C59.9929 68.1098 60.1334 67.7706 60.1334 67.417Z" fill="#D2003F"/>
</g>
<defs>
<clipPath id="clip0_126_333">
<rect width="80" height="80" fill="white" transform="translate(0.800049)"/>
</clipPath>
</defs>
</svg>
