<svg width="65" height="80" viewBox="0 0 65 80" fill="none" xmlns="http://www.w3.org/2000/svg">
<path d="M63.2659 15.6684L48.9329 1.33545H4.60068C3.12788 1.33545 1.93408 2.52925 1.93408 4.00205V10.6141C1.93411 10.9271 2.04426 11.2301 2.24524 11.47L4.69351 14.3935C4.88025 14.6165 4.98894 14.8944 5.00302 15.1849C5.0171 15.4754 4.9358 15.7626 4.77151 16.0026L2.16724 19.8078C2.01547 20.0296 1.93425 20.2921 1.93425 20.5608V32.7672C1.93425 33.101 2.05958 33.4228 2.28524 33.6688L6.08214 37.8054C6.28172 38.0228 6.40352 38.3003 6.42846 38.5943C6.45341 38.8884 6.38008 39.1824 6.21997 39.4303L2.14741 45.7357C2.0082 45.9512 1.93413 46.2024 1.93408 46.459V59.6555C1.93413 59.8552 1.97906 60.0524 2.06554 60.2324C2.15202 60.4125 2.27785 60.5708 2.43374 60.6956L4.08219 62.0173C4.35424 62.2354 4.53 62.5514 4.57178 62.8976C4.61356 63.2437 4.51804 63.5925 4.30569 63.8691L2.20941 66.6018C2.0308 66.8347 1.93402 67.12 1.93408 67.4135V76.0003C1.93408 77.473 3.12788 78.6668 4.60068 78.6668H60.5993C62.0721 78.6668 63.2659 77.473 63.2659 76.0003V58.8238C63.2659 58.5249 63.1655 58.2345 62.9809 57.9994L60.7778 55.1974C60.5866 54.9543 60.486 54.6523 60.493 54.3431C60.5 54.034 60.6143 53.7368 60.8163 53.5026L62.9426 51.0377C63.1513 50.7958 63.2661 50.4869 63.266 50.1674L63.2659 15.6684Z" fill="#F5F6F8"/>
<path d="M60.8162 53.5025C60.6144 53.7368 60.5002 54.0338 60.4932 54.343C60.4861 54.6521 60.5867 54.9541 60.7777 55.1973L62.9808 57.9992C63.1658 58.2342 63.2662 58.5246 63.2658 58.8237V76.0001C63.2658 77.4729 62.072 78.6667 60.5992 78.6667H4.60056C3.12776 78.6667 1.93396 77.4729 1.93396 76.0001V67.4135C1.93396 67.1183 2.03096 66.8333 2.20929 66.6018L4.30573 63.8692C4.74739 63.2942 4.64722 62.4708 4.08224 62.0174L2.43378 60.6958C2.27772 60.5711 2.15176 60.4128 2.06525 60.2327C1.97875 60.0527 1.93393 59.8554 1.93413 59.6557V52.1365C1.93413 51.2327 2.81444 50.5907 3.67458 50.868C25.007 57.7474 48.7961 53.1313 60.8263 35.1601C61.559 34.0656 63.2659 34.5851 63.2659 35.9021V50.1672C63.2659 50.4856 63.1508 50.7959 62.9424 51.0375L60.8162 53.5025ZM63.2659 15.6684H51.5996C50.1263 15.6684 48.933 14.4751 48.933 13.0018V1.33545L63.2659 15.6684Z" fill="white"/>
<path d="M52.5996 24.5016V29.1681C52.5996 30.6414 51.4063 31.8347 49.933 31.8347H15.2672C13.7939 31.8347 12.6006 30.6414 12.6006 29.1681V24.5016C12.6006 23.0283 13.7939 21.835 15.2672 21.835H49.933C51.4063 21.835 52.5996 23.0283 52.5996 24.5016Z" fill="#D7D8DA"/>
<path d="M64.5992 50.6621V15.6683C64.5992 15.3147 64.4588 14.9755 64.2087 14.7255C48.8683 -0.617496 49.8374 0.329812 49.6463 0.210148C49.499 0.115366 49.3339 0.0516234 49.1611 0.0228197C48.9716 -0.00951284 51.4691 0.00198687 4.6009 0.00198687C2.39545 0.00198687 0.600997 1.79644 0.600997 4.00189V11.0985C0.600997 11.4115 0.711161 11.7145 0.912156 11.9547L3.67175 15.2496L0.834157 19.3957C0.68235 19.6175 0.601134 19.88 0.601163 20.1488V33.2863C0.601163 33.6399 0.741636 33.9791 0.991678 34.2291C1.24172 34.4791 1.58085 34.6196 1.93446 34.6196C2.28808 34.6196 2.62721 34.4791 2.87725 34.2291C3.12729 33.9791 3.26776 33.6399 3.26776 33.2863V20.5611L6.44335 15.9213C6.60762 15.6812 6.68889 15.3941 6.67478 15.1036C6.66067 14.813 6.55195 14.5351 6.36519 14.3121L3.26743 10.6141V4.00189C3.26743 3.26674 3.86558 2.66859 4.60073 2.66859H47.5997V13.0017C47.5997 15.2071 49.3939 17.0016 51.5996 17.0016H54.9328C55.2864 17.0016 55.6255 16.8611 55.8756 16.611C56.1256 16.361 56.2661 16.0219 56.2661 15.6683C56.2661 15.3146 56.1256 14.9755 55.8756 14.7255C55.6255 14.4754 55.2864 14.335 54.9328 14.335H51.5996C50.8644 14.335 50.2663 13.7368 50.2663 13.0017V4.55421L61.9326 16.2206V50.1667L59.0895 53.4633C58.8876 53.6975 58.7733 53.9947 58.7663 54.3038C58.7593 54.613 58.8601 54.915 59.0512 55.1581L61.9326 58.8232V76.0001C61.9326 76.7352 61.3345 77.3334 60.5993 77.3334H4.60073C3.86558 77.3334 3.26743 76.7352 3.26743 76.0001V67.4126L6.15852 63.6454C6.37084 63.3687 6.46629 63.0199 6.42442 62.6736C6.38254 62.3274 6.20668 62.0114 5.93453 61.7933L3.26743 59.6562V46.4595L7.89831 39.2873C8.08367 38.9903 8.14479 38.6324 8.06849 38.2907C7.99219 37.949 7.78458 37.6511 7.49048 37.4611C7.19639 37.2712 6.8394 37.2046 6.49659 37.2756C6.15378 37.3466 5.85265 37.5496 5.6582 37.8407L0.814158 45.3432C0.675027 45.5588 0.601016 45.8099 0.600997 46.0665V60.2963C0.601011 60.4961 0.645902 60.6933 0.732356 60.8734C0.818809 61.0535 0.944617 61.2118 1.10048 61.3368L3.24826 63.0577L0.876323 66.1483C0.697618 66.3812 0.600775 66.6665 0.60083 66.96V76.0001C0.60083 78.2055 2.39528 80 4.60073 80H60.5993C62.8048 80 64.5992 78.2055 64.5992 76.0001V58.3617C64.5992 58.0628 64.4988 57.7726 64.3141 57.5377L61.8261 54.3733L64.2756 51.5329C64.4844 51.2908 64.5992 50.9817 64.5992 50.6621Z" fill="#D2003F"/>
<path d="M11.2672 24.5013V29.1679C11.2672 31.3733 13.0615 33.1678 15.2671 33.1678H49.9329C52.1385 33.1678 53.9328 31.3733 53.9328 29.1679V24.5013C53.9328 22.2959 52.1385 20.5014 49.9329 20.5014H15.2671C13.0615 20.5014 11.2672 22.2959 11.2672 24.5013ZM51.2662 24.5013V29.1679C51.2662 29.903 50.6681 30.5012 49.9329 30.5012H15.2671C14.532 30.5012 13.9338 29.903 13.9338 29.1679V24.5013C13.9338 23.7662 14.532 23.168 15.2671 23.168H49.9329C50.6681 23.168 51.2662 23.7662 51.2662 24.5013ZM41.5998 16.0016C41.9534 16.0016 42.2925 15.8611 42.5426 15.611C42.7926 15.361 42.9331 15.0219 42.9331 14.6683C42.9331 14.3146 42.7926 13.9755 42.5426 13.7255C42.2925 13.4754 41.9534 13.335 41.5998 13.335H20.9336C20.58 13.335 20.2409 13.4754 19.9909 13.7255C19.7408 13.9755 19.6003 14.3146 19.6003 14.6683C19.6003 15.0219 19.7408 15.361 19.9909 15.611C20.2409 15.8611 20.58 16.0016 20.9336 16.0016H41.5998ZM15.1004 41.8342H50.0996C50.4532 41.8342 50.7923 41.6938 51.0424 41.4437C51.2924 41.1937 51.4329 40.8546 51.4329 40.5009C51.4329 40.1473 51.2924 39.8082 51.0424 39.5582C50.7923 39.3081 50.4532 39.1676 50.0996 39.1676H15.1004C14.7468 39.1676 14.4077 39.3081 14.1577 39.5582C13.9076 39.8082 13.7671 40.1473 13.7671 40.5009C13.7671 40.8546 13.9076 41.1937 14.1577 41.4437C14.4077 41.6938 14.7468 41.8342 15.1004 41.8342ZM51.4329 50.834C51.4329 50.4804 51.2924 50.1413 51.0424 49.8912C50.7923 49.6412 50.4532 49.5007 50.0996 49.5007H15.1004C14.7468 49.5007 14.4077 49.6412 14.1577 49.8912C13.9076 50.1413 13.7671 50.4804 13.7671 50.834C13.7671 51.1876 13.9076 51.5268 14.1577 51.7768C14.4077 52.0269 14.7468 52.1673 15.1004 52.1673H50.0996C50.4532 52.1673 50.7923 52.0269 51.0424 51.7768C51.2924 51.5268 51.4329 51.1876 51.4329 50.834ZM15.1004 59.8338C14.7468 59.8338 14.4077 59.9743 14.1577 60.2243C13.9076 60.4744 13.7671 60.8135 13.7671 61.1671C13.7671 61.5207 13.9076 61.8598 14.1577 62.1099C14.4077 62.3599 14.7468 62.5004 15.1004 62.5004H26.2023C26.556 62.5004 26.8951 62.3599 27.1451 62.1099C27.3952 61.8598 27.5356 61.5207 27.5356 61.1671C27.5356 60.8135 27.3952 60.4744 27.1451 60.2243C26.8951 59.9743 26.556 59.8338 26.2023 59.8338H15.1004ZM33.7042 71.4828C34.5059 71.0122 35.2792 70.4948 36.0201 69.9332C38.1364 72.2113 40.836 72.1118 43.2176 70.131C45.639 72.2822 49.2539 71.5602 51.257 68.7506C51.4623 68.4627 51.5448 68.105 51.4864 67.7563C51.428 67.4075 51.2335 67.0963 50.9456 66.891C50.6576 66.6857 50.3 66.6032 49.9512 66.6616C49.6025 66.7201 49.2913 66.9146 49.0859 67.2024C47.8531 68.9319 45.6252 69.3786 44.4457 67.4858C43.9786 66.7358 42.9234 66.6406 42.3289 67.2924C40.9748 68.7774 39.787 69.2749 38.7985 68.7709C38.5362 68.6371 38.2829 68.4416 38.0424 68.1958C41.018 65.297 42.4843 62.1186 42.5771 59.8676C42.6684 57.6517 41.014 55.8317 38.6432 55.5402C36.5551 55.2839 34.0148 56.4159 33.3762 59.51C32.8672 61.9764 33.3153 65.2062 34.5355 67.7106C33.8395 68.2474 33.1103 68.7397 32.3522 69.1844C32.2006 69.2728 32.0679 69.3903 31.9618 69.5301C31.8556 69.6699 31.7782 69.8293 31.7338 69.9991C31.6894 70.1689 31.679 70.3458 31.7031 70.5197C31.7273 70.6935 31.7855 70.8609 31.8745 71.0122C31.9635 71.1635 32.0815 71.2957 32.2217 71.4013C32.3619 71.5069 32.5216 71.5838 32.6916 71.6275C32.8616 71.6712 33.0385 71.6809 33.2123 71.6561C33.3861 71.6313 33.5532 71.5724 33.7042 71.4828ZM35.9878 60.049C36.2796 58.6347 37.2301 58.0527 38.3177 58.1867C39.113 58.2845 39.9515 58.8178 39.9128 59.7575C39.8582 61.0828 38.8822 63.459 36.6251 65.8308C35.9301 64.046 35.6219 61.8216 35.9878 60.049Z" fill="#D2003F"/>
</svg>
