<svg width="81" height="80" viewBox="0 0 81 80" fill="none" xmlns="http://www.w3.org/2000/svg">
<path d="M54.8665 1.33398H14.8669C12.6586 1.33398 10.8669 3.12563 10.8669 5.33394V74.6665C10.8669 76.8749 12.6586 78.6665 14.8669 78.6665H65.533C67.7413 78.6665 69.533 76.8749 69.533 74.6665V16.0005L54.8665 1.33398Z" fill="#D7D8DA"/>
<path d="M66.4747 12.9422C37.9181 21.8883 20.5472 45.9192 14.5524 75.0605C14.1071 77.2257 10.8979 76.9327 10.8674 74.7225C10.8668 74.6767 10.8671 5.28794 10.8671 5.33394C10.8671 3.1248 12.6579 1.33398 14.867 1.33398H54.8666L66.4747 12.9422Z" fill="white"/>
<path d="M69.533 16.0005H58.8665C56.6582 16.0005 54.8665 14.2088 54.8665 12.0005V1.33398L69.533 16.0005Z" fill="#F5F6F8"/>
<path d="M70.8663 26.0005V74.6667C70.8663 77.6075 68.4739 79.9999 65.533 79.9999H14.8669C11.9261 79.9999 9.53363 77.6075 9.53363 74.6667V5.33406C9.53363 2.39326 11.9261 0.00078126 14.8669 0.00078126C14.9656 0.00078126 54.7917 0.0001146 54.8902 0.00194791C55.6428 0.0151144 54.7262 -0.691878 70.4758 15.0578C71.1152 15.6971 70.945 16.7933 70.1182 17.1974C69.722 17.3916 70.3782 17.3338 58.8664 17.3338C53.7837 17.3338 52.066 10.6672 54.8665 10.6672C55.2201 10.6672 55.5592 10.8076 55.8093 11.0577C56.0593 11.3077 56.1998 11.6469 56.1998 12.0005C56.1998 13.4708 57.3961 14.6671 58.8664 14.6671H66.314L54.3142 2.66725H14.8669C13.3966 2.66725 12.2003 3.86357 12.2003 5.33389V74.6665C12.2003 76.1368 13.3966 77.3331 14.8669 77.3331H65.533C67.0034 77.3331 68.1997 76.1368 68.1997 74.6665V26.0003C68.1997 25.8253 68.2342 25.6519 68.3012 25.4901C68.3682 25.3284 68.4664 25.1814 68.5903 25.0576C68.7141 24.9338 68.8611 24.8356 69.0228 24.7686C69.1846 24.7016 69.358 24.6671 69.5331 24.6671C69.7082 24.6671 69.8816 24.7016 70.0433 24.7686C70.2051 24.8356 70.3521 24.9339 70.4759 25.0577C70.5997 25.1815 70.6979 25.3285 70.7649 25.4903C70.8319 25.652 70.8663 25.8254 70.8663 26.0005ZM19.2002 26.3338V16.8339C19.2002 16.4803 19.3407 16.1412 19.5907 15.8911C19.8408 15.6411 20.1799 15.5006 20.5335 15.5006H30.0334C30.387 15.5006 30.7262 15.6411 30.9762 15.8911C31.2263 16.1412 31.3667 16.4803 31.3667 16.8339V26.3338C31.3667 26.6875 31.2263 27.0266 30.9762 27.2766C30.7262 27.5267 30.387 27.6672 30.0334 27.6672H20.5335C20.1799 27.6672 19.8408 27.5267 19.5907 27.2766C19.3407 27.0266 19.2002 26.6875 19.2002 26.3338ZM21.8668 25.0005H28.7001V18.1673H21.8668V25.0005ZM19.2002 36.8337C19.2002 36.4801 19.3407 36.141 19.5907 35.8909C19.8408 35.6409 20.1799 35.5004 20.5335 35.5004H30.0334C30.387 35.5004 30.7262 35.6409 30.9762 35.8909C31.2263 36.141 31.3667 36.4801 31.3667 36.8337V46.3336C31.3667 46.6873 31.2263 47.0264 30.9762 47.2764C30.7262 47.5265 30.387 47.667 30.0334 47.667H20.5335C20.1799 47.667 19.8408 47.5265 19.5907 47.2764C19.3407 47.0264 19.2002 46.6873 19.2002 46.3336V36.8337ZM21.8668 45.0003H28.7001V38.1671H21.8668V45.0003ZM19.2002 66.3334C19.2002 66.687 19.3407 67.0262 19.5907 67.2762C19.8408 67.5263 20.1799 67.6667 20.5335 67.6667H30.0334C30.387 67.6667 30.7262 67.5263 30.9762 67.2762C31.2263 67.0262 31.3667 66.687 31.3667 66.3334C31.3667 65.9798 31.2263 65.6407 30.9762 65.3906C30.7262 65.1406 30.387 65.0001 30.0334 65.0001H21.8668V56.8335C21.8668 56.4799 21.7264 56.1408 21.4763 55.8907C21.2263 55.6407 20.8871 55.5002 20.5335 55.5002C20.1799 55.5002 19.8408 55.6407 19.5907 55.8907C19.3407 56.1408 19.2002 56.4799 19.2002 56.8335V66.3334ZM36.0595 53.6407C35.8095 53.3907 35.4704 53.2503 35.1168 53.2503C34.7632 53.2503 34.4241 53.3907 34.174 53.6407L28.7003 59.1145L26.8098 57.224C26.5597 56.974 26.2206 56.8336 25.867 56.8336C25.5135 56.8336 25.1743 56.974 24.9243 57.224C24.8005 57.3478 24.7022 57.4948 24.6352 57.6565C24.5682 57.8183 24.5337 57.9917 24.5337 58.1668C24.5337 58.3419 24.5682 58.5152 24.6352 58.677C24.7022 58.8387 24.8005 58.9857 24.9243 59.1095L27.7576 61.9428C27.8814 62.0666 28.0284 62.1648 28.1901 62.2318C28.3519 62.2988 28.5253 62.3333 28.7003 62.3333C28.8754 62.3333 29.0488 62.2988 29.2106 62.2318C29.3723 62.1648 29.5193 62.0666 29.6431 61.9428L36.0597 55.5262C36.1835 55.4024 36.2817 55.2554 36.3487 55.0937C36.4157 54.9319 36.4501 54.7585 36.4501 54.5834C36.4501 54.4083 36.4156 54.235 36.3486 54.0732C36.2816 53.9115 36.1833 53.7645 36.0595 53.6407ZM54.8665 38.667H41.2C40.8463 38.667 40.5072 38.8075 40.2572 39.0576C40.0071 39.3076 39.8666 39.6467 39.8666 40.0004C39.8666 40.354 40.0071 40.6931 40.2572 40.9432C40.5072 41.1932 40.8463 41.3337 41.2 41.3337H54.8665C55.2201 41.3337 55.5592 41.1932 55.8093 40.9432C56.0593 40.6931 56.1998 40.354 56.1998 40.0004C56.1998 39.6467 56.0593 39.3076 55.8093 39.0576C55.5592 38.8075 55.2201 38.667 54.8665 38.667ZM54.8665 60.3335H41.2C40.8463 60.3335 40.5072 60.474 40.2572 60.724C40.0071 60.9741 39.8666 61.3132 39.8666 61.6668C39.8666 62.0204 40.0071 62.3596 40.2572 62.6096C40.5072 62.8597 40.8463 63.0001 41.2 63.0001H54.8665C55.2201 63.0001 55.5592 62.8597 55.8093 62.6096C56.0593 62.3596 56.1998 62.0204 56.1998 61.6668C56.1998 61.3132 56.0593 60.9741 55.8093 60.724C55.5592 60.474 55.2201 60.3335 54.8665 60.3335ZM41.2 22.3339H49.8665C50.2202 22.3339 50.5593 22.1934 50.8093 21.9434C51.0594 21.6933 51.1999 21.3542 51.1999 21.0006C51.1999 20.6469 51.0594 20.3078 50.8093 20.0578C50.5593 19.8077 50.2202 19.6672 49.8665 19.6672H41.2C40.8463 19.6672 40.5072 19.8077 40.2572 20.0578C40.0071 20.3078 39.8666 20.6469 39.8666 21.0006C39.8666 21.3542 40.0071 21.6933 40.2572 21.9434C40.5072 22.1934 40.8463 22.3339 41.2 22.3339Z" fill="#D2003F"/>
</svg>
